<svg width="129" height="20" viewBox="0 0 129 20" fill="none" xmlns="http://www.w3.org/2000/svg">
<path d="M30.3266 8.84684L24.6964 0.761954C24.1645 0 23.96 0 23.2901 0H22.4156C21.7508 0 21.5412 0 21.0093 0.761954L19.107 3.49783L17.2047 0.761954C16.6728 0 16.4683 0 15.7984 0H14.9239C14.2591 0 14.0495 0 13.5176 0.761954L11.6153 3.49271L9.71299 0.761954C9.18116 0 8.97661 0 8.3067 0H7.43224C6.76745 0 6.55779 0 6.02595 0.761954C6.02595 0.761954 3.06507 5.01151 1.29571 7.55817C0.958197 8.03887 0.666711 8.4582 0.446819 8.78036C-0.151494 9.63948 -0.14638 10.3656 0.446819 11.2196L1.29571 12.4418L6.02595 19.2329C6.55779 19.9949 6.76234 19.9949 7.43224 19.9949H8.3067C8.95104 19.9949 9.16582 19.9949 9.66185 19.2994L12.7352 14.8862H14.9546L13.0727 17.5863C12.8631 17.888 12.8631 18.2869 13.0727 18.5937C13.3591 18.9977 13.712 19.5091 13.7222 19.5142C14.116 20 14.3461 20 14.9188 20H15.7933C16.4274 20 16.6473 20 17.128 19.3352L20.2167 14.8913H22.4361L20.5542 17.5914C20.3445 17.8931 20.3445 18.292 20.5542 18.5937L20.9991 19.2329C21.5309 19.9949 21.7355 19.9949 22.4054 19.9949H23.2799C23.9446 19.9949 24.1543 19.9949 24.6861 19.2329L30.3164 11.1532C30.8022 10.4628 30.8022 9.5372 30.3164 8.84684H30.3266Z" fill="#F42424"/>
<path d="M57.1362 3C54.6735 3 52.6816 4.99182 52.6816 7.45455C52.6816 4.99182 50.6898 3 48.2271 3C45.7644 3 43.7726 4.99182 43.7726 7.45455C43.7726 4.99182 41.7807 3 39.318 3C38.968 3 38.6816 3.28636 38.6816 3.63636V15.8927C38.6816 16.5991 39.0825 17 39.7889 17H42.6653C43.3716 17 43.7726 16.5991 43.7726 15.8927V8.09091H47.5907V15.8927C47.5907 16.5991 47.9916 17 48.698 17H51.5744C52.2807 17 52.6816 16.5991 52.6816 15.8927V8.09091H56.4998V15.8927C56.4998 16.5991 56.9007 17 57.6071 17H60.4835C61.1898 17 61.5907 16.5991 61.5907 15.8927V7.45455C61.5907 4.99182 59.5989 3 57.1362 3Z" fill="#F42424"/>
<path fill-rule="evenodd" clip-rule="evenodd" d="M74.4061 3H77.2825C77.9888 3 78.3897 3.40091 78.3897 4.10727V16.3636C78.3897 16.7136 78.1034 17 77.7534 17C75.3118 17 73.3332 15.0423 73.2993 12.609C73.2654 15.0424 71.2867 17 68.8452 17C66.3824 17 64.3906 15.0082 64.3906 12.5455V4.10732C64.3906 3.40096 64.7915 3.00005 65.4979 3.00005H68.3743C69.0806 3.00005 69.4815 3.40096 69.4815 4.10732V11.9091H73.2988V4.10727C73.2988 3.40091 73.6997 3 74.4061 3Z" fill="#F42424"/>
<path fill-rule="evenodd" clip-rule="evenodd" d="M91.2087 17C90.5023 17 90.1014 16.5991 90.1014 15.8927V8.09091H86.2832V7.45455C86.2832 4.99182 88.275 3 90.7377 3C93.2005 3 95.1923 4.99182 95.1923 7.45455V15.8927C95.1923 16.5991 94.7914 17 94.085 17H91.2087ZM85.175 17H82.2987C81.5923 17 81.1914 16.5991 81.1914 15.8928V3.63641C81.1914 3.28641 81.4778 3.00005 81.8278 3.00005C84.2905 3.00005 86.2823 4.99187 86.2823 7.45459V15.8928C86.2823 16.5991 85.8814 17 85.175 17Z" fill="#F42424"/>
<path fill-rule="evenodd" clip-rule="evenodd" d="M108.008 3H110.884C111.59 3 111.991 3.40091 111.991 4.10727V16.3636C111.991 16.7136 111.705 17 111.355 17C108.913 17 106.935 15.0423 106.901 12.609C106.867 15.0424 104.888 17 102.447 17C99.984 17 97.9922 15.0082 97.9922 12.5455V4.10732C97.9922 3.40096 98.3931 3.00005 99.0995 3.00005H101.976C102.682 3.00005 103.083 3.40096 103.083 4.10732V11.9091H106.9V4.10727C106.9 3.40091 107.301 3 108.008 3Z" fill="#F42424"/>
<path d="M124.336 8.09091C126.799 8.09091 128.797 6.09273 128.791 3.63C128.791 3.28 128.505 3 128.155 3H119.246C116.783 3 114.791 4.99182 114.791 7.45455C114.791 9.91727 116.783 11.9091 119.246 11.9091C116.783 11.9091 114.785 13.9073 114.791 16.37C114.791 16.72 115.077 17 115.427 17H124.336C126.799 17 128.791 15.0082 128.791 12.5455C128.791 10.0827 126.799 8.09091 124.336 8.09091ZM119.882 11.9091V8.09091H123.7V11.9091H119.882Z" fill="#F42424"/>
</svg>
