<svg width="104" height="16" viewBox="0 0 104 16" fill="none" xmlns="http://www.w3.org/2000/svg">
<g id="Group 2385">
<path id="Vector" d="M24.2613 7.07747L19.7571 0.609563C19.3316 0 19.168 0 18.6321 0H17.9325C17.4007 0 17.2329 0 16.8075 0.609563L15.2856 2.79826L13.7637 0.609563C13.3383 0 13.1746 0 12.6387 0H11.9391C11.4073 0 11.2396 0 10.8141 0.609563L9.29225 2.79417L7.77039 0.609563C7.34493 0 7.18128 0 6.64536 0H5.9458C5.41396 0 5.24623 0 4.82076 0.609563C4.82076 0.609563 2.45206 4.0092 1.03656 6.04654C0.766557 6.43109 0.533369 6.76656 0.357455 7.02429C-0.121195 7.71158 -0.117104 8.29251 0.357455 8.97571L1.03656 9.95346L4.82076 15.3863C5.24623 15.9959 5.40987 15.9959 5.9458 15.9959H6.64536C7.16083 15.9959 7.33265 15.9959 7.72948 15.4395L10.1882 11.909H11.9637L10.4582 14.069C10.2905 14.3104 10.2905 14.6295 10.4582 14.875C10.6873 15.1982 10.9696 15.6073 10.9778 15.6114C11.2928 16 11.4769 16 11.9351 16H12.6346C13.1419 16 13.3178 16 13.7024 15.4682L16.1734 11.9131H17.9489L16.4434 14.0731C16.2756 14.3145 16.2756 14.6336 16.4434 14.875L16.7993 15.3863C17.2248 15.9959 17.3884 15.9959 17.9243 15.9959H18.6239C19.1557 15.9959 19.3234 15.9959 19.7489 15.3863L24.2531 8.92253C24.6418 8.37024 24.6418 7.62976 24.2531 7.07747H24.2613Z" fill="#01263A"/>
<g id="Group 2383">
<path id="Vector_2" d="M45.707 2.4043C43.7368 2.4043 42.1434 3.99775 42.1434 5.96793C42.1434 3.99775 40.5499 2.4043 38.5797 2.4043C36.6095 2.4043 35.0161 3.99775 35.0161 5.96793C35.0161 3.99775 33.4226 2.4043 31.4525 2.4043C31.1725 2.4043 30.9434 2.63339 30.9434 2.91339V12.7185C30.9434 13.2836 31.2641 13.6043 31.8292 13.6043H34.1303C34.6954 13.6043 35.0161 13.2836 35.0161 12.7185V6.47702H38.0706V12.7185C38.0706 13.2836 38.3914 13.6043 38.9565 13.6043H41.2575C41.8226 13.6043 42.1434 13.2836 42.1434 12.7185V6.47702H45.1979V12.7185C45.1979 13.2836 45.5186 13.6043 46.0837 13.6043H48.3848C48.9499 13.6043 49.2706 13.2836 49.2706 12.7185V5.96793C49.2706 3.99775 47.6772 2.4043 45.707 2.4043Z" fill="#01263A"/>
<path id="Union" fill-rule="evenodd" clip-rule="evenodd" d="M54.6986 2.40234C55.2637 2.40234 55.5844 2.72307 55.5844 3.28816V9.52962H58.6387V3.28816C58.6387 2.72307 58.9594 2.40234 59.5245 2.40234H61.8256C62.3907 2.40234 62.7114 2.72307 62.7114 3.28816V13.0933C62.7114 13.3733 62.4823 13.6023 62.2023 13.6023C60.2435 13.6023 58.6571 12.0273 58.6388 10.0729C58.6205 12.0273 57.0341 13.6023 55.0754 13.6023C53.1052 13.6023 51.5117 12.0089 51.5117 10.0387V3.28816C51.5117 2.72307 51.8324 2.40234 52.3975 2.40234H54.6986Z" fill="#01263A"/>
<path id="Union_2" fill-rule="evenodd" clip-rule="evenodd" d="M68.14 13.6023H65.8389C65.2739 13.6023 64.9531 13.2816 64.9531 12.7165V2.91143C64.9531 2.63143 65.1822 2.40234 65.4622 2.40234C67.401 2.40234 68.975 3.94548 69.0246 5.8722C69.0743 3.94548 70.6482 2.40234 72.5871 2.40234C74.5573 2.40234 76.1507 3.9958 76.1507 5.96598V12.7165C76.1507 13.2816 75.83 13.6023 75.2649 13.6023H72.9638C72.3987 13.6023 72.078 13.2816 72.078 12.7165V6.47507H69.0259V12.7165C69.0259 13.2816 68.7051 13.6023 68.14 13.6023Z" fill="#01263A"/>
<path id="Union_3" fill-rule="evenodd" clip-rule="evenodd" d="M81.5775 2.40234C82.1426 2.40234 82.4634 2.72307 82.4634 3.28816V9.52962H85.5176V3.28816C85.5176 2.72307 85.8383 2.40234 86.4034 2.40234H88.7045C89.2696 2.40234 89.5903 2.72307 89.5903 3.28816V13.0933C89.5903 13.3733 89.3612 13.6023 89.0812 13.6023C87.1224 13.6023 85.536 12.0273 85.5177 10.0729C85.4994 12.0273 83.913 13.6023 81.9543 13.6023C79.9841 13.6023 78.3906 12.0089 78.3906 10.0387V3.28816C78.3906 2.72307 78.7114 2.40234 79.2764 2.40234H81.5775Z" fill="#01263A"/>
<path id="Vector_3" d="M99.4684 6.47702C101.439 6.47702 103.037 4.87848 103.032 2.9083C103.032 2.6283 102.803 2.4043 102.523 2.4043H95.3957C93.4255 2.4043 91.832 3.99775 91.832 5.96793C91.832 7.93812 93.4255 9.53157 95.3957 9.53157C93.4255 9.53157 91.827 11.1301 91.832 13.1003C91.832 13.3803 92.0611 13.6043 92.3411 13.6043H99.4684C101.439 13.6043 103.032 12.0108 103.032 10.0407C103.032 8.07048 101.439 6.47702 99.4684 6.47702ZM95.9048 9.53157V6.47702H98.9593V9.53157H95.9048Z" fill="#01263A"/>
</g>
</g>
</svg>
